<svg width="12" height="10" viewBox="0 0 12 10" fill="none" xmlns="http://www.w3.org/2000/svg">
<path fill-rule="evenodd" clip-rule="evenodd" d="M4.46407 1.53593C4.46407 0.687661 5.15173 0 6.00002 0C6.84826 0 7.53595 0.687661 7.53595 1.53593V1.62377C7.53595 2.03112 7.37411 2.42179 7.08608 2.70983L6.66196 3.13397C6.56591 3.22999 6.512 3.36021 6.512 3.49599V3.54838L11.2456 6.35895C12.5882 7.1562 12.023 9.21557 10.4614 9.21557H1.53856C-0.0229368 9.21557 -0.588246 7.15615 0.754417 6.35895L5.48805 3.54838V3.49599C5.48805 3.08864 5.64983 2.69797 5.93787 2.40993L6.36204 1.98579C6.45804 1.88978 6.512 1.75955 6.512 1.62377V1.53593C6.512 1.25317 6.28274 1.02395 6.00002 1.02395C5.71726 1.02395 5.48805 1.25317 5.48805 1.53593C5.48805 1.81868 5.25878 2.0479 4.97607 2.0479C4.6933 2.0479 4.46407 1.81868 4.46407 1.53593ZM6.00002 4.43525L1.27719 7.23939C0.829626 7.50516 1.01807 8.19162 1.53856 8.19162H10.4614C10.982 8.19162 11.1704 7.50516 10.7228 7.23939L6.00002 4.43525Z" fill="#FF7E5F"/>
</svg>
